<?xml version="1.0" encoding="UTF-8"?>
<svg version="1.1" xmlns="http://www.w3.org/2000/svg" width="259" height="194">
<path d="M0 0 C85.47 0 170.94 0 259 0 C259 64.02 259 128.04 259 194 C173.53 194 88.06 194 0 194 C0 129.98 0 65.96 0 0 Z " fill="#FCFDFD" transform="translate(0,0)"/>
<path d="M0 0 C19.14 0 38.28 0 58 0 C58 2.64 58 5.28 58 8 C56.68805664 8.0093457 55.37611328 8.01869141 54.02441406 8.02832031 C49.15623029 8.06819661 44.28868005 8.13394913 39.42089844 8.20751953 C37.3142104 8.23574279 35.2074162 8.25695056 33.10058594 8.27099609 C30.0717122 8.29240661 27.04411669 8.3390476 24.015625 8.390625 C23.07382385 8.39185364 22.13202271 8.39308228 21.16168213 8.39434814 C15.9259228 8.45482454 15.9259228 8.45482454 11.43652344 10.91308594 C8.7229576 14.85522747 8.4855143 18.29986794 9 23 C10.53413413 26.79781191 10.53413413 26.79781191 13 30 C14.47210816 30.10161714 15.94896222 30.13567763 17.42456055 30.1418457 C18.83689217 30.15239738 18.83689217 30.15239738 20.27775574 30.16316223 C21.30371353 30.16732651 22.32967133 30.17149078 23.38671875 30.17578125 C25.54362947 30.19898741 27.70053053 30.22310506 29.85742188 30.24804688 C33.2698402 30.28312529 36.681906 30.31247795 40.09448242 30.32592773 C43.37983395 30.34142355 46.66414316 30.38165648 49.94921875 30.42578125 C50.96505539 30.42387283 51.98089203 30.42196442 53.0275116 30.41999817 C60.08239518 30.54152725 63.55004384 31.68643745 68.6796875 36.61328125 C73.25909578 43.12322439 72.91374983 50.3295312 72 58 C70.55254994 62.9007573 68.0194868 66.78441056 64 70 C63.34 70 62.68 70 62 70 C62 70.66 62 71.32 62 72 C63.051875 72.0928125 63.051875 72.0928125 64.125 72.1875 C68.87312064 73.52936018 71.73134971 75.93893122 74.26953125 80.0625 C77.81174033 87.67261703 78.47319577 96.28215894 76.375 104.42578125 C74.06145068 109.74487901 70.01825256 114.14365408 65 117 C60.29619947 117.83341586 55.75791747 117.6661011 51 117.4375 C49.74832031 117.40591797 48.49664062 117.37433594 47.20703125 117.34179688 C44.13556501 117.2597348 41.06903237 117.14497609 38 117 C37.8131665 117.76546143 37.62633301 118.53092285 37.43383789 119.31958008 C35.91193621 125.49122998 34.32238175 131.6166348 32.4375 137.6875 C32.22931641 138.38810547 32.02113281 139.08871094 31.80664062 139.81054688 C31.26523682 141.5603504 30.63966256 143.28367769 30 145 C29.34 145.33 28.68 145.66 28 146 C26.71443334 142.19268645 25.43278817 138.38407809 24.15478516 134.57421875 C23.71934244 133.27795677 23.28282408 131.98205562 22.84521484 130.68652344 C22.21690673 128.82581959 21.59276741 126.96370969 20.96875 125.1015625 C20.59169922 123.98088379 20.21464844 122.86020508 19.82617188 121.70556641 C19 119 19 119 19 117 C8.11 117 -2.78 117 -14 117 C-15.46384059 110.41271735 -16.28412448 105.10434743 -16.22705078 98.53295898 C-16.22734283 97.63431625 -16.22763489 96.73567352 -16.22793579 95.80979919 C-16.22655462 92.87179537 -16.2110511 89.93405267 -16.1953125 86.99609375 C-16.19157805 84.94629556 -16.18873312 82.89649557 -16.18673706 80.84669495 C-16.17913462 75.47585034 -16.15951548 70.10511549 -16.1373291 64.73431396 C-16.11679739 59.24411503 -16.10771973 53.75389821 -16.09765625 48.26367188 C-16.07626619 37.50906661 -16.04217149 26.75454246 -16 16 C-15.38125 16.495 -14.7625 16.99 -14.125 17.5 C-12.16119096 19.19222773 -12.16119096 19.19222773 -10 19 C-6.7 12.73 -3.4 6.46 0 0 Z " fill="#FBFCFA" transform="translate(16,46)"/>
<path d="M0 0 C10.32700287 -0.09275657 20.65390633 -0.16379377 30.98124123 -0.20724869 C35.77686929 -0.22810691 40.57221196 -0.25639228 45.36767578 -0.30175781 C49.99720432 -0.34527858 54.62645865 -0.36915039 59.25617599 -0.37950897 C61.02080984 -0.38688917 62.78542899 -0.40130111 64.54994583 -0.42292023 C67.02532409 -0.45203762 69.49957518 -0.45595261 71.97509766 -0.45410156 C73.0648288 -0.47567322 73.0648288 -0.47567322 74.17657471 -0.49768066 C80.00979342 -0.45060729 83.45214764 1.5820139 87.609375 5.52734375 C93.76330327 13.13545371 93.776028 20.59925576 93 30 C91.60403862 35.92656656 88.66827683 39.8995553 84.171875 43.90625 C77.39134933 47.32090322 67.91887284 46.21581417 60.53125 46.31640625 C59.25519897 46.33718735 57.97914795 46.35796844 56.66442871 46.37937927 C53.29767965 46.43343672 49.93091805 46.4837599 46.56408691 46.53222656 C43.11819529 46.58276658 39.67238405 46.63828171 36.2265625 46.69335938 C29.4844375 46.80012469 22.74225064 46.90150132 16 47 C12.7 53.27 9.4 59.54 6 66 C2 64 2 64 0 62 C-0.24050903 59.4057312 -0.24050903 59.4057312 -0.22705078 56.08154297 C-0.22689972 54.84040741 -0.22674866 53.59927185 -0.22659302 52.32052612 C-0.216379 50.9610783 -0.205947 49.6016321 -0.1953125 48.2421875 C-0.19158284 46.85499271 -0.18873565 45.46779529 -0.18673706 44.08059692 C-0.17909684 40.42759949 -0.15944516 36.77476083 -0.1373291 33.12182617 C-0.11687896 29.39504138 -0.10773713 25.66823096 -0.09765625 21.94140625 C-0.07619951 14.62753175 -0.04205903 7.31378811 0 0 Z " fill="#FDFEFE" transform="translate(0,0)"/>
<path d="M0 0 C1.01252838 0.00707474 2.02505676 0.01414948 3.06826782 0.0214386 C6.28846467 0.04933046 9.50689506 0.11206117 12.7265625 0.17578125 C14.9153394 0.20087076 17.10414366 0.22368279 19.29296875 0.24414062 C24.64643162 0.29913965 29.99887084 0.3827135 35.3515625 0.48828125 C35.3515625 3.12828125 35.3515625 5.76828125 35.3515625 8.48828125 C34.03961914 8.49762695 32.72767578 8.50697266 31.37597656 8.51660156 C26.50779279 8.55647786 21.64024255 8.62223038 16.77246094 8.69580078 C14.6657729 8.72402404 12.5589787 8.74523181 10.45214844 8.75927734 C7.4232747 8.78068786 4.39567919 8.82732885 1.3671875 8.87890625 C0.42538635 8.88013489 -0.51641479 8.88136353 -1.48675537 8.88262939 C-6.7225147 8.94310579 -6.7225147 8.94310579 -11.21191406 11.40136719 C-13.9254799 15.34350872 -14.1629232 18.78814919 -13.6484375 23.48828125 C-12.11430337 27.28609316 -12.11430337 27.28609316 -9.6484375 30.48828125 C-8.17632934 30.58989839 -6.69947528 30.62395888 -5.22387695 30.63012695 C-3.81154533 30.64067863 -3.81154533 30.64067863 -2.37068176 30.65144348 C-1.34472397 30.65560776 -0.31876617 30.65977203 0.73828125 30.6640625 C2.89519197 30.68726866 5.05209303 30.71138631 7.20898438 30.73632812 C10.6214027 30.77140654 14.0334685 30.8007592 17.44604492 30.81420898 C20.73139645 30.8297048 24.01570566 30.86993773 27.30078125 30.9140625 C28.31661789 30.91215408 29.33245453 30.91024567 30.3790741 30.90827942 C37.43395768 31.0298085 40.90160634 32.1747187 46.03125 37.1015625 C50.61065828 43.61150564 50.26531233 50.81781245 49.3515625 58.48828125 C47.90411244 63.38903855 45.3710493 67.27269181 41.3515625 70.48828125 C40.6915625 70.48828125 40.0315625 70.48828125 39.3515625 70.48828125 C39.3515625 71.14828125 39.3515625 71.80828125 39.3515625 72.48828125 C40.4034375 72.58109375 40.4034375 72.58109375 41.4765625 72.67578125 C46.22468314 74.01764143 49.08291221 76.42721247 51.62109375 80.55078125 C55.16330283 88.16089828 55.82475827 96.77044019 53.7265625 104.9140625 C51.41301318 110.23316026 47.36981506 114.63193533 42.3515625 117.48828125 C37.64776197 118.32169711 33.10947997 118.15438235 28.3515625 117.92578125 C27.09988281 117.89419922 25.84820312 117.86261719 24.55859375 117.83007812 C21.48712751 117.74801605 18.42059487 117.63325734 15.3515625 117.48828125 C15.164729 118.25374268 14.97789551 119.0192041 14.78540039 119.80786133 C13.26349871 125.97951123 11.67394425 132.10491605 9.7890625 138.17578125 C9.58087891 138.87638672 9.37269531 139.57699219 9.15820312 140.29882812 C8.61679932 142.04863165 7.99122506 143.77195894 7.3515625 145.48828125 C6.6915625 145.81828125 6.0315625 146.14828125 5.3515625 146.48828125 C4.06599584 142.6809677 2.78435067 138.87235934 1.50634766 135.0625 C1.07090494 133.76623802 0.63438658 132.47033687 0.19677734 131.17480469 C-0.43153077 129.31410084 -1.05567009 127.45199094 -1.6796875 125.58984375 C-2.05673828 124.46916504 -2.43378906 123.34848633 -2.82226562 122.19384766 C-3.6484375 119.48828125 -3.6484375 119.48828125 -3.6484375 117.48828125 C-14.5384375 117.48828125 -25.4284375 117.48828125 -36.6484375 117.48828125 C-36.6484375 114.51828125 -36.6484375 111.54828125 -36.6484375 108.48828125 C-35.70740677 108.48241501 -34.76637604 108.47654877 -33.79682922 108.47050476 C-24.9243846 108.4132682 -16.05218485 108.34050174 -7.17998981 108.25256634 C-2.61879051 108.20785687 1.94231936 108.16860204 6.50366211 108.1418457 C10.90640836 108.11581843 15.30881055 108.07542019 19.71134377 108.02509499 C21.39019297 108.00842235 23.0691017 107.99691053 24.74802208 107.99066734 C27.10150515 107.9810304 29.45410722 107.95297723 31.80737305 107.9206543 C32.84639267 107.92280693 32.84639267 107.92280693 33.90640259 107.92500305 C38.21027515 107.84151474 40.92741843 107.11798038 44.3515625 104.48828125 C47.25398222 100.08460995 47.90152676 96.71294174 47.3515625 91.48828125 C46.14258868 87.42547126 44.98786647 84.9124839 41.3515625 82.48828125 C38.78634246 82.27567304 36.32594153 82.17705116 33.7590332 82.16943359 C32.98806305 82.15938797 32.2170929 82.14934235 31.42276001 82.13899231 C28.87429551 82.1081002 26.32593635 82.09110858 23.77734375 82.07421875 C22.01042267 82.05551193 20.24351056 82.03593889 18.47660828 82.01553345 C13.82584928 81.96415479 9.1750613 81.9245598 4.52416992 81.88739014 C-0.2215902 81.8473864 -4.96722917 81.79627752 -9.71289062 81.74609375 C-19.02465454 81.64926659 -28.33648678 81.56488356 -37.6484375 81.48828125 C-37.6484375 78.51828125 -37.6484375 75.54828125 -37.6484375 72.48828125 C-32.6984375 71.99328125 -32.6984375 71.99328125 -27.6484375 71.48828125 C-27.3184375 68.84828125 -26.9884375 66.20828125 -26.6484375 63.48828125 C-25.84077438 63.48241501 -25.03311127 63.47654877 -24.20097351 63.47050476 C-16.59345172 63.41262657 -8.98625927 63.34057853 -1.37903118 63.25256634 C2.53204098 63.2078181 6.44300791 63.16857214 10.35424805 63.1418457 C14.12808338 63.11585664 17.90151469 63.07548635 21.67510033 63.02509499 C23.11556159 63.00839631 24.55609278 62.99690072 25.99663734 62.99066734 C28.01260024 62.98105977 30.02843691 62.95132023 32.04418945 62.9206543 C33.76627373 62.90399971 33.76627373 62.90399971 35.52314758 62.88700867 C38.34179455 62.71650392 38.34179455 62.71650392 40.18327332 61.14875793 C42.31896319 58.11332519 42.56000386 55.2169961 42.6640625 51.61328125 C42.70144531 50.77023438 42.73882812 49.9271875 42.77734375 49.05859375 C42.1607896 45.336643 41.18858762 44.02184219 38.3515625 41.48828125 C34.71198836 40.76585591 31.11656357 40.88695901 27.41796875 40.95703125 C26.34788071 40.95376831 25.27779266 40.95050537 24.17527771 40.94714355 C19.59782604 40.93396305 15.0213449 40.97877668 10.4440918 41.01806641 C7.10174495 41.03852344 3.76033995 41.02971379 0.41796875 41.01953125 C-0.61549179 41.03914917 -1.64895233 41.05876709 -2.71372986 41.07897949 C-9.91280991 41.05290795 -9.91280991 41.05290795 -13.69946289 38.14648438 C-14.34262451 37.26927734 -14.98578613 36.39207031 -15.6484375 35.48828125 C-16.3909375 34.47765625 -17.1334375 33.46703125 -17.8984375 32.42578125 C-21.41512955 26.52276246 -21.26170314 20.2169282 -20.6484375 13.48828125 C-17.52448188 2.58121335 -10.53840214 -0.27886712 0 0 Z " fill="#F49525" transform="translate(38.6484375,45.51171875)"/>
<path d="M0 0 C10.34427381 -0.09270353 20.6884487 -0.16376684 31.0330534 -0.20724869 C35.83655666 -0.22811847 40.6397756 -0.25642499 45.44311523 -0.30175781 C50.07912297 -0.3452373 54.71485733 -0.36914169 59.35105324 -0.37950897 C61.11930457 -0.38689657 62.88754103 -0.40132293 64.65567589 -0.42292023 C67.13365316 -0.45198273 69.61050261 -0.4559549 72.08862305 -0.45410156 C73.1837471 -0.47567322 73.1837471 -0.47567322 74.30099487 -0.49768066 C77.88191764 -0.46872463 79.86307154 -0.08710036 82.91242981 1.8526001 C86.33954259 5.37793385 86.88384131 8.69902263 87.3125 13.5 C86.90053692 18.11398644 85.44346997 21.25580712 82.5 24.8125 C78.97883292 27.60009061 74.92869528 27.1353365 70.68286133 27.11352539 C69.57029716 27.11374443 69.57029716 27.11374443 68.43525696 27.1139679 C65.98415195 27.11327134 63.53312298 27.10549097 61.08203125 27.09765625 C59.38238059 27.09579116 57.68272939 27.09436768 55.983078 27.09336853 C51.50980139 27.08955055 47.03655724 27.07972638 42.56329346 27.06866455 C37.99858031 27.05843499 33.43386193 27.0538676 28.86914062 27.04882812 C19.91274615 27.03810349 10.95637578 27.02103567 2 27 C2 28.98 2 30.96 2 33 C1.67 33 1.34 33 1 33 C0.19604975 28.77717482 -0.11811363 24.80386236 -0.09765625 20.5078125 C-0.09443359 19.30898437 -0.09121094 18.11015625 -0.08789062 16.875 C-0.07951172 15.6375 -0.07113281 14.4 -0.0625 13.125 C-0.05798828 11.86429688 -0.05347656 10.60359375 -0.04882812 9.3046875 C-0.0370796 6.20307614 -0.02065167 3.10156275 0 0 Z " fill="#FEFBF8" transform="translate(0,127)"/>
<path d="M0 0 C10.19661806 -0.09276059 20.39313541 -0.16379579 30.5900898 -0.20724869 C35.32518565 -0.22810605 40.0599924 -0.25638979 44.79492188 -0.30175781 C49.36609608 -0.34528173 53.93699255 -0.36915104 58.508358 -0.37950897 C60.25066372 -0.38688861 61.99295457 -0.40129947 63.73514175 -0.42292023 C66.1793911 -0.4520419 68.62249907 -0.45595245 71.06689453 -0.45410156 C71.78403122 -0.46848267 72.50116791 -0.48286377 73.24003601 -0.49768066 C79.03905289 -0.45029818 82.47797902 1.60652863 86.609375 5.52734375 C92.76330327 13.13545371 92.776028 20.59925576 92 30 C90.60403862 35.92656656 87.66827683 39.8995553 83.171875 43.90625 C76.39134933 47.32090322 66.91887284 46.21581417 59.53125 46.31640625 C58.25519897 46.33718735 56.97914795 46.35796844 55.66442871 46.37937927 C52.29767965 46.43343672 48.93091805 46.4837599 45.56408691 46.53222656 C42.11819529 46.58276658 38.67238405 46.63828171 35.2265625 46.69335938 C28.4844375 46.80012469 21.74225064 46.90150132 15 47 C11.7 53.27 8.4 59.54 5 66 C1 64 1 64 0 63 C-0.42705847 58.7943024 0.58011866 56.34166364 2.625 52.69921875 C3.16640625 51.72275391 3.7078125 50.74628906 4.265625 49.74023438 C4.83796875 48.73283203 5.4103125 47.72542969 6 46.6875 C6.57234375 45.66076172 7.1446875 44.63402344 7.734375 43.57617188 C9.14692324 41.04535627 10.56900473 38.52041654 12 36 C13.24574799 35.99453156 13.24574799 35.99453156 14.5166626 35.98895264 C22.34464448 35.9510807 30.17220939 35.89423744 37.999897 35.81609726 C42.02419919 35.77659333 46.04828163 35.74441943 50.07275391 35.72900391 C53.95689241 35.7138561 57.84042688 35.67944514 61.72429657 35.63169098 C63.20579528 35.61685758 64.68738022 35.60895786 66.16895294 35.60811615 C68.24512571 35.6057504 70.31962377 35.57870794 72.39550781 35.54589844 C73.57687317 35.53701599 74.75823853 35.52813354 75.97540283 35.51898193 C79.60303769 34.8965265 80.73298032 33.83034728 83 31 C85.45969607 27.4334407 85.36019742 24.25032953 85 20 C83.90810996 16.50595187 82.62325356 13.62325356 80 11 C77.44234658 10.78269674 74.98962638 10.68861791 72.42919922 10.68115234 C71.25833267 10.66608391 71.25833267 10.66608391 70.06381226 10.65071106 C67.477445 10.61976007 64.8911818 10.60281108 62.3046875 10.5859375 C60.513917 10.56723541 58.7231554 10.54766273 56.93240356 10.5272522 C52.21422563 10.47582356 47.49601908 10.43625544 42.77770996 10.39910889 C37.96501528 10.35913634 33.15244069 10.3080133 28.33984375 10.2578125 C18.89331339 10.16092623 9.4467154 10.07656226 0 10 C0 6.7 0 3.4 0 0 Z " fill="#32ABDF" transform="translate(1,0)"/>
<path d="M0 0 C1.01252838 0.00707474 2.02505676 0.01414948 3.06826782 0.0214386 C6.28846467 0.04933046 9.50689506 0.11206117 12.7265625 0.17578125 C14.9153394 0.20087076 17.10414366 0.22368279 19.29296875 0.24414062 C24.64643162 0.29913965 29.99887084 0.3827135 35.3515625 0.48828125 C35.3515625 3.12828125 35.3515625 5.76828125 35.3515625 8.48828125 C33.38364746 8.5022998 33.38364746 8.5022998 31.37597656 8.51660156 C26.50779279 8.55647786 21.64024255 8.62223038 16.77246094 8.69580078 C14.6657729 8.72402404 12.5589787 8.74523181 10.45214844 8.75927734 C7.4232747 8.78068786 4.39567919 8.82732885 1.3671875 8.87890625 C0.42538635 8.88013489 -0.51641479 8.88136353 -1.48675537 8.88262939 C-6.7225147 8.94310579 -6.7225147 8.94310579 -11.21191406 11.40136719 C-13.9254799 15.34350872 -14.1629232 18.78814919 -13.6484375 23.48828125 C-12.11430337 27.28609316 -12.11430337 27.28609316 -9.6484375 30.48828125 C-8.17632934 30.58989839 -6.69947528 30.62395888 -5.22387695 30.63012695 C-3.81154533 30.64067863 -3.81154533 30.64067863 -2.37068176 30.65144348 C-1.34472397 30.65560776 -0.31876617 30.65977203 0.73828125 30.6640625 C2.89519197 30.68726866 5.05209303 30.71138631 7.20898438 30.73632812 C10.6214027 30.77140654 14.0334685 30.8007592 17.44604492 30.81420898 C20.73139645 30.8297048 24.01570566 30.86993773 27.30078125 30.9140625 C28.31661789 30.91215408 29.33245453 30.91024567 30.3790741 30.90827942 C37.43395768 31.0298085 40.90160634 32.1747187 46.03125 37.1015625 C50.61553358 43.61843622 50.25035053 50.81078351 49.3515625 58.48828125 C48.497608 61.62739892 47.46435858 64.01393717 45.3515625 66.48828125 C44.64128906 67.33849854 43.93101563 68.18871582 43.19921875 69.06469727 C38.00517369 73.30765454 30.6728073 72.09480524 24.328125 71.9765625 C22.85697637 71.96722772 21.38581211 71.96011475 19.91464233 71.9551239 C16.0574797 71.93610581 12.20127043 71.88705208 8.34448242 71.831604 C4.4029632 71.78029801 0.46128872 71.75758581 -3.48046875 71.73242188 C-11.2035579 71.6789263 -18.92586371 71.59367902 -26.6484375 71.48828125 C-26.6484375 68.84828125 -26.6484375 66.20828125 -26.6484375 63.48828125 C-25.84077438 63.48241501 -25.03311127 63.47654877 -24.20097351 63.47050476 C-16.59345172 63.41262657 -8.98625927 63.34057853 -1.37903118 63.25256634 C2.53204098 63.2078181 6.44300791 63.16857214 10.35424805 63.1418457 C14.12808338 63.11585664 17.90151469 63.07548635 21.67510033 63.02509499 C23.11556159 63.00839631 24.55609278 62.99690072 25.99663734 62.99066734 C28.01260024 62.98105977 30.02843691 62.95132023 32.04418945 62.9206543 C33.76627373 62.90399971 33.76627373 62.90399971 35.52314758 62.88700867 C38.34179455 62.71650392 38.34179455 62.71650392 40.18327332 61.14875793 C42.31896319 58.11332519 42.56000386 55.2169961 42.6640625 51.61328125 C42.70144531 50.77023438 42.73882812 49.9271875 42.77734375 49.05859375 C42.1607896 45.336643 41.18858762 44.02184219 38.3515625 41.48828125 C34.71198836 40.76585591 31.11656357 40.88695901 27.41796875 40.95703125 C26.34788071 40.95376831 25.27779266 40.95050537 24.17527771 40.94714355 C19.59782604 40.93396305 15.0213449 40.97877668 10.4440918 41.01806641 C7.10174495 41.03852344 3.76033995 41.02971379 0.41796875 41.01953125 C-0.61549179 41.03914917 -1.64895233 41.05876709 -2.71372986 41.07897949 C-9.91280991 41.05290795 -9.91280991 41.05290795 -13.69946289 38.14648438 C-14.34262451 37.26927734 -14.98578613 36.39207031 -15.6484375 35.48828125 C-16.3909375 34.47765625 -17.1334375 33.46703125 -17.8984375 32.42578125 C-21.41512955 26.52276246 -21.26170314 20.2169282 -20.6484375 13.48828125 C-17.52448188 2.58121335 -10.53840214 -0.27886712 0 0 Z " fill="#8FC444" transform="translate(38.6484375,45.51171875)"/>
<path d="M0 0 C8.71844003 -0.02312611 17.43686956 -0.04091646 26.15533352 -0.05181217 C30.20325742 -0.05704041 34.25116041 -0.06413699 38.29907227 -0.07543945 C42.20235971 -0.08627043 46.10562699 -0.09227728 50.0089283 -0.09487724 C51.50133647 -0.09673111 52.99374348 -0.100351 54.48614311 -0.10573006 C56.56948139 -0.11294331 58.65273531 -0.11399083 60.73608398 -0.11352539 C61.92411118 -0.115746 63.11213837 -0.11796661 64.33616638 -0.12025452 C67 0 67 0 68 1 C68.125 4 68.125 4 68 7 C67 8 67 8 64.33616638 8.12025452 C62.5541256 8.1169236 62.5541256 8.1169236 60.73608398 8.11352539 C59.7556311 8.11374443 59.7556311 8.11374443 58.75537109 8.1139679 C56.58557872 8.11326883 54.41587121 8.10547678 52.24609375 8.09765625 C50.74536689 8.09579205 49.24463943 8.09436816 47.74391174 8.09336853 C43.78681774 8.08954352 39.82976022 8.0797134 35.87268066 8.06866455 C31.83765151 8.05845006 27.80261647 8.05387083 23.76757812 8.04882812 C15.84503531 8.03809111 7.92252219 8.0210149 0 8 C0 5.36 0 2.72 0 0 Z " fill="#15789D" transform="translate(12,19)"/>
<path d="M0 0 C1.27156952 -0.00315216 2.54313904 -0.00630432 3.85324097 -0.009552 C5.25258417 -0.00776184 6.65192706 -0.00571079 8.05126953 -0.00341797 C9.4775494 -0.00409119 10.90382916 -0.00506136 12.33010864 -0.00631714 C15.32457569 -0.00779423 18.31901297 -0.00563985 21.31347656 -0.00097656 C25.15261147 0.00471044 28.99167632 0.00144834 32.83080864 -0.00454903 C35.77845792 -0.00816314 38.72609061 -0.00701195 41.67374039 -0.00442123 C43.08913303 -0.00375379 44.50452717 -0.00457404 45.91991806 -0.00690079 C47.89973675 -0.00944004 49.87956071 -0.00488365 51.859375 0 C53.55028763 0.00119339 53.55028763 0.00119339 55.27536011 0.00241089 C58.05908203 0.12939453 58.05908203 0.12939453 61.05908203 1.12939453 C61.10162559 3.12894199 61.09988986 5.12981089 61.05908203 7.12939453 C60.05908203 8.12939453 60.05908203 8.12939453 57.39524841 8.24964905 C55.61320763 8.24631813 55.61320763 8.24631813 53.79516602 8.24291992 C52.81471313 8.24313896 52.81471313 8.24313896 51.81445312 8.24336243 C49.64466075 8.24266336 47.47495324 8.23487131 45.30517578 8.22705078 C43.80444892 8.22518658 42.30372146 8.22376269 40.80299377 8.22276306 C36.84589977 8.21893806 32.88884225 8.20910793 28.9317627 8.19805908 C24.89673354 8.18784459 20.86169851 8.18326536 16.82666016 8.17822266 C8.90411734 8.16748564 0.98160422 8.15040943 -6.94091797 8.12939453 C-6.9833352 5.79644678 -6.98184734 3.46236886 -6.94091797 1.12939453 C-5.14231095 -0.66921248 -2.42499894 0.0017139 0 0 Z " fill="#F16537" transform="translate(18.94091796875,135.87060546875)"/>
<path d="M0 0 C7.38728102 -0.02526692 14.77455098 -0.0428316 22.16186523 -0.05493164 C24.67716895 -0.05997363 27.19246972 -0.06680703 29.70776367 -0.07543945 C33.31429775 -0.08751094 36.92079323 -0.09322949 40.52734375 -0.09765625 C42.22575661 -0.10539818 42.22575661 -0.10539818 43.95848083 -0.11329651 C45.51998619 -0.11340981 45.51998619 -0.11340981 47.11303711 -0.11352539 C48.03459091 -0.115746 48.95614471 -0.11796661 49.90562439 -0.12025452 C52 0 52 0 53 1 C53 2.98 53 4.96 53 7 C35.51 7 18.02 7 0 7 C0 4.69 0 2.38 0 0 Z " fill="#58823A" transform="translate(23,93)"/>
<path d="M0 0 C0.99 0 1.98 0 3 0 C3 0.66 3 1.32 3 2 C3.99 1.34 4.98 0.68 6 0 C8.5 -0.375 8.5 -0.375 11 0 C13.25840849 2.28002006 13.95480584 3.67389312 14.3984375 6.875 C14.39070312 7.90625 14.38296875 8.9375 14.375 10 C14.38273438 11.03125 14.39046875 12.0625 14.3984375 13.125 C13.95463328 16.327352 13.26852347 17.72607529 11 20 C8.375 20.3125 8.375 20.3125 6 20 C5.67 19.67 5.34 19.34 5 19 C4.67 21.64 4.34 24.28 4 27 C2.68 27 1.36 27 0 27 C0 18.09 0 9.18 0 0 Z " fill="#368BAB" transform="translate(158,117)"/>
<path d="M0 0 C13.2 0 26.4 0 40 0 C40 2.31 40 4.62 40 7 C34.46411467 7.02464775 28.928261 7.04283496 23.39233398 7.05493164 C21.5075627 7.05997244 19.62279535 7.06680498 17.73803711 7.07543945 C15.03498364 7.08751617 12.33198169 7.09323068 9.62890625 7.09765625 C8.78099014 7.10281754 7.93307404 7.10797882 7.0594635 7.11329651 C5.03928932 7.11349195 3.01922066 7.06206211 1 7 C0.67 6.67 0.34 6.34 0 6 C0 4.02 0 2.04 0 0 Z " fill="#59823B" transform="translate(31,63)"/>
<path d="M0 0 C0.99 0 1.98 0 3 0 C3 8.91 3 17.82 3 27 C1.68 26.67 0.36 26.34 -1 26 C-3.70465742 26.86454438 -3.70465742 26.86454438 -6 28 C-10.03247609 24.09760378 -11.16924972 22.24945817 -11.3125 16.625 C-11.26997956 13.02493646 -11.22935801 11.38814433 -9.375 8.25 C-6.21337667 6.58598772 -4.37982503 7.07822954 -1 8 C-0.67 5.36 -0.34 2.72 0 0 Z " fill="#1A7B9F" transform="translate(207,110)"/>
<path d="M0 0 C11 0 11 0 13.6875 2.0625 C15.34326252 5.76825422 15.64581382 7.98160287 15 12 C12.875 14.9375 12.875 14.9375 10 17 C6.6875 17.3125 6.6875 17.3125 4 17 C4 20.3 4 23.6 4 27 C2.68 27 1.36 27 0 27 C0 18.09 0 9.18 0 0 Z " fill="#3087A8" transform="translate(107,32)"/>
<path d="M0 0 C2.5 0.625 2.5 0.625 4.75 2.6875 C6.76370177 6.06764226 7.19463324 8.73157375 7.5 12.625 C4.2 12.625 0.9 12.625 -2.5 12.625 C-2.17 13.615 -1.84 14.605 -1.5 15.625 C0.48 15.625 2.46 15.625 4.5 15.625 C4.83 16.945 5.16 18.265 5.5 19.625 C2.58944799 21.080276 0.71908202 21.07567148 -2.5 20.625 C-5.69170856 17.3492991 -6.77553043 14.53692679 -7 10.0625 C-6.84074912 6.81158557 -6.43809439 5.51265278 -4.8125 2.5625 C-2.5 0.625 -2.5 0.625 0 0 Z " fill="#2682A4" transform="translate(132.5,116.375)"/>
<path d="M0 0 C3.07870219 2.91637062 3.94894262 4.50729632 4.390625 8.76953125 C4.36431837 10.11774585 4.31701804 11.46569518 4.25 12.8125 C4.23195312 13.50537109 4.21390625 14.19824219 4.1953125 14.91210938 C4.14851064 16.60867664 4.07677624 18.30452476 4 20 C3.21882812 19.98710938 2.43765625 19.97421875 1.6328125 19.9609375 C-0.94810907 19.88164786 -0.94810907 19.88164786 -3.125 20.625 C-3.74375 20.74875 -4.3625 20.8725 -5 21 C-5.99 20.34 -6.98 19.68 -8 19 C-8.65658747 12.10583153 -8.65658747 12.10583153 -6.8125 9 C-4.44004321 7.69105832 -2.6664882 7.78379825 0 8 C-0.33 7.01 -0.66 6.02 -1 5 C-3.97 4.505 -3.97 4.505 -7 4 C-7 3.01 -7 2.02 -7 1 C-4.37869511 -0.31065245 -2.90828303 -0.415469 0 0 Z " fill="#237FA3" transform="translate(163,38)"/>
<path d="M0 0 C2.03120707 3.04681061 2.24659875 3.60118324 2.1953125 7.01171875 C2.18564453 8.14770508 2.18564453 8.14770508 2.17578125 9.30664062 C2.15902344 10.09232422 2.14226562 10.87800781 2.125 11.6875 C2.11597656 12.48478516 2.10695312 13.28207031 2.09765625 14.10351562 C2.07411585 16.069139 2.03824547 18.03460775 2 20 C1.39285156 19.82210937 0.78570312 19.64421875 0.16015625 19.4609375 C-2.07227758 18.82103112 -2.07227758 18.82103112 -4.5625 19.625 C-7 20 -7 20 -8.8125 19 C-10.63896798 15.9238434 -10.37456175 13.49590968 -10 10 C-8.875 8.0625 -8.875 8.0625 -7 7 C-3.8125 6.8125 -3.8125 6.8125 -1 7 C-1.33 5.68 -1.66 4.36 -2 3 C-3.98 3 -5.96 3 -8 3 C-8 2.01 -8 1.02 -8 0 C-5.06791253 -1.46604374 -3.11702298 -0.77925574 0 0 Z " fill="#18799E" transform="translate(238,39)"/>
<path d="M0 0 C1.98619603 1.53018314 2.89327873 2.40427345 3.34057617 4.90112305 C3.32486572 5.59761963 3.30915527 6.29411621 3.29296875 7.01171875 C3.28330078 7.76904297 3.27363281 8.52636719 3.26367188 9.30664062 C3.23853516 10.09232422 3.21339844 10.87800781 3.1875 11.6875 C3.17396484 12.48478516 3.16042969 13.28207031 3.14648438 14.10351562 C3.11117089 16.06929967 3.05736447 18.03473582 3 20 C-0.010209 20.58058538 -2.92898664 21.0272253 -6 21 C-8.0625 19.4375 -8.0625 19.4375 -9 17 C-9.38805206 13.83090818 -9.53577671 11.89296119 -7.875 9.125 C-5.21965017 7.5317901 -3.03210482 7.79785968 0 8 C-0.33 7.01 -0.66 6.02 -1 5 C-3.97 4.505 -3.97 4.505 -7 4 C-7 3.01 -7 2.02 -7 1 C-4.45132831 -0.27433584 -2.82594567 -0.27570202 0 0 Z " fill="#13769C" transform="translate(200,38)"/>
<path d="M0 0 C2.8125 0.125 2.8125 0.125 6 1 C8.7558635 5.04193314 9 6.99681641 9 12 C5.7 12 2.4 12 -1 12 C-0.34 13.32 0.32 14.64 1 16 C2.98 16 4.96 16 7 16 C6.125 19.875 6.125 19.875 5 21 C2.13735383 21.30133118 0.5952271 21.44642032 -1.75 19.6875 C-4.88227903 15.45892331 -4.61542061 10.01927458 -4 5 C-2 1.875 -2 1.875 0 0 Z " fill="#18799E" transform="translate(131,38)"/>
<path d="M0 0 C1.96647425 1.55241811 2.89334085 2.40462024 3.34057617 4.90112305 C3.32486572 5.59761963 3.30915527 6.29411621 3.29296875 7.01171875 C3.28330078 7.76904297 3.27363281 8.52636719 3.26367188 9.30664062 C3.23853516 10.09232422 3.21339844 10.87800781 3.1875 11.6875 C3.17396484 12.48478516 3.16042969 13.28207031 3.14648438 14.10351562 C3.11117089 16.06929967 3.05736447 18.03473582 3 20 C2.360625 19.814375 1.72125 19.62875 1.0625 19.4375 C0.0415625 19.2209375 0.0415625 19.2209375 -1 19 C-1.33 19.33 -1.66 19.66 -2 20 C-4.4375 20.25 -4.4375 20.25 -7 20 C-9.31332486 16.53001271 -9.33957563 15.07490752 -9 11 C-8.34 10.01 -7.68 9.02 -7 8 C-3.375 7.8125 -3.375 7.8125 0 8 C-0.33 6.35 -0.66 4.7 -1 3 C-3.31 3 -5.62 3 -8 3 C-7.67 2.01 -7.34 1.02 -7 0 C-4.26634878 -1.36682561 -2.89333621 -0.84683011 0 0 Z " fill="#18799E" transform="translate(148,78)"/>
<path d="M0 0 C0.99 0.66 1.98 1.32 3 2 C2.67 3.32 2.34 4.64 2 6 C-0.64 5.67 -3.28 5.34 -6 5 C-6 6.32 -6 7.64 -6 9 C-4.28816514 10.54081603 -4.28816514 10.54081603 -2.0625 11.6875 C-1.33160156 12.10386719 -0.60070312 12.52023438 0.15234375 12.94921875 C0.76207031 13.29597656 1.37179688 13.64273438 2 14 C3 15 3 15 3.25 18.8125 C3.19713661 21.4893096 3.000278 22.99934588 1.9375 25.5 C-1.05072823 27.81346701 -3.34503841 27.4568702 -7 27 C-9 25.75 -9 25.75 -10 24 C-9.6875 21.8125 -9.6875 21.8125 -9 20 C-7.515 20.99 -7.515 20.99 -6 22 C-3.37468476 22.16713569 -3.37468476 22.16713569 -1 22 C-0.67 20.35 -0.34 18.7 0 17 C-0.9075 16.7525 -1.815 16.505 -2.75 16.25 C-6.23710513 14.90880572 -7.8580163 14.04820757 -10 11 C-10.45674603 7.34603178 -10.41282332 4.94706527 -8.9375 1.5625 C-5.98820117 -0.81596679 -3.66596109 -0.39278155 0 0 Z " fill="#18799E" transform="translate(117,71)"/>
<path d="M0 0 C2.8347708 2.53810874 3.00370736 4.04923371 3.29296875 7.890625 C3.27314945 9.34404009 3.23754845 10.79731167 3.1875 12.25 C3.17396484 12.99507812 3.16042969 13.74015625 3.14648438 14.5078125 C3.11127204 16.33885416 3.05746851 18.16952169 3 20 C1.37536158 20.05395478 -0.24978541 20.09277195 -1.875 20.125 C-2.77992188 20.14820313 -3.68484375 20.17140625 -4.6171875 20.1953125 C-7 20 -7 20 -9 18 C-9.55021834 11.94759825 -9.55021834 11.94759825 -7.875 9.0625 C-5.214973 7.55515137 -2.99793795 7.80013747 0 8 C-0.66 6.68 -1.32 5.36 -2 4 C-3.98 4 -5.96 4 -8 4 C-8 3.01 -8 2.02 -8 1 C-5.17116253 -0.41441874 -3.12623255 -0.31900332 0 0 Z " fill="#1F7DA1" transform="translate(187,117)"/>
<path d="M0 0 C2.4375 0.25 2.4375 0.25 5 1 C7.03120707 4.04681061 7.24659875 4.60118324 7.1953125 8.01171875 C7.18564453 9.14770508 7.18564453 9.14770508 7.17578125 10.30664062 C7.15902344 11.09232422 7.14226562 11.87800781 7.125 12.6875 C7.11597656 13.48478516 7.10695313 14.28207031 7.09765625 15.10351562 C7.07411585 17.069139 7.03824547 19.03460775 7 21 C6.01 21 5.02 21 4 21 C3.67 15.39 3.34 9.78 3 4 C1.68 4.33 0.36 4.66 -1 5 C-1.33 10.28 -1.66 15.56 -2 21 C-3.32 21 -4.64 21 -6 21 C-6 14.4 -6 7.8 -6 1 C-4.35 1 -2.7 1 -1 1 C-0.67 0.67 -0.34 0.34 0 0 Z " fill="#4292B0" transform="translate(252,38)"/>
<path d="M0 0 C0.99 0 1.98 0 3 0 C3 4.95 3 9.9 3 15 C3.66 15 4.32 15 5 15 C5.433125 13.8553125 5.433125 13.8553125 5.875 12.6875 C7 10 7 10 9 7 C9.99 7 10.98 7 12 7 C11.690625 7.70125 11.38125 8.4025 11.0625 9.125 C9.35728006 13.73912455 8.35267143 16.56461926 10.4375 21.1875 C10.953125 22.115625 11.46875 23.04375 12 24 C12 24.99 12 25.98 12 27 C11.01 27 10.02 27 9 27 C7.68 24.69 6.36 22.38 5 20 C4.01 22.31 3.02 24.62 2 27 C1.34 27 0.68 27 0 27 C0 18.09 0 9.18 0 0 Z " fill="#18799E" transform="translate(218,71)"/>
<path d="M0 0 C0.66 0 1.32 0 2 0 C2.33 4.95 2.66 9.9 3 15 C4.32 15 5.64 15 7 15 C7.33 10.05 7.66 5.1 8 0 C9.32 0 10.64 0 12 0 C12 6.6 12 13.2 12 20 C8.7 20 5.4 20 2 20 C0 18 0 18 -0.22705078 16.12060547 C-0.21657715 15.37697754 -0.20610352 14.63334961 -0.1953125 13.8671875 C-0.18886719 13.06152344 -0.18242187 12.25585938 -0.17578125 11.42578125 C-0.15064453 10.16314453 -0.15064453 10.16314453 -0.125 8.875 C-0.11597656 8.02550781 -0.10695312 7.17601563 -0.09765625 6.30078125 C-0.07405647 4.20040116 -0.03818483 2.10016556 0 0 Z " fill="#2E86A8" transform="translate(217,117)"/>
<path d="M0 0 C0.66 0 1.32 0 2 0 C-1.5625 20.34375 -1.5625 20.34375 -6 27 C-8.625 27.1875 -8.625 27.1875 -11 27 C-11 26.01 -11 25.02 -11 24 C-9.68 24 -8.36 24 -7 24 C-8.17877546 15.91781835 -8.17877546 15.91781835 -10.125 8 C-11 5 -11 5 -11 1 C-10.01 1.33 -9.02 1.66 -8 2 C-6.51117562 6.07467725 -5.73729783 9.66541415 -6 14 C-5.34 14 -4.68 14 -4 14 C-3.896875 12.80375 -3.79375 11.6075 -3.6875 10.375 C-3.21108648 6.4375824 -1.98869284 3.45859625 0 0 Z " fill="#1C7CA0" transform="translate(184,38)"/>
<path d="M0 0 C2.52775351 3.79163027 2.22443035 6.80874031 2.125 11.1875 C2.11597656 11.93708984 2.10695312 12.68667969 2.09765625 13.45898438 C2.07412578 15.30612654 2.03825561 17.15310412 2 19 C1.01 19 0.02 19 -1 19 C-1.33 14.05 -1.66 9.1 -2 4 C-3.32 3.67 -4.64 3.34 -6 3 C-6.33 8.61 -6.66 14.22 -7 20 C-7.99 20 -8.98 20 -10 20 C-10 13.4 -10 6.8 -10 0 C-3.81443299 -1.2371134 -3.81443299 -1.2371134 0 0 Z " fill="#207EA2" transform="translate(220,39)"/>
<path d="M0 0 C4.95 0 9.9 0 15 0 C15 1.32 15 2.64 15 4 C13.02 4 11.04 4 9 4 C9 11.26 9 18.52 9 26 C8.01 26 7.02 26 6 26 C6 18.74 6 11.48 6 4 C4.02 4 2.04 4 0 4 C0 2.68 0 1.36 0 0 Z " fill="#1A7A9F" transform="translate(106,111)"/>
<path d="M0 0 C0.94875 0.04125 1.8975 0.0825 2.875 0.125 C3.205 1.445 3.535 2.765 3.875 4.125 C1.895 4.125 -0.085 4.125 -2.125 4.125 C-2.125 5.115 -2.125 6.105 -2.125 7.125 C-1.34125 7.41375 -0.5575 7.7025 0.25 8 C2.875 9.125 2.875 9.125 4.875 11.125 C4.41346154 17.58653846 4.41346154 17.58653846 1.875 20.125 C-1.75 19.75 -1.75 19.75 -5.125 19.125 C-5.125 17.805 -5.125 16.485 -5.125 15.125 C-2.815 15.455 -0.505 15.785 1.875 16.125 C1.14670256 12.82878292 1.14670256 12.82878292 -2.1875 11.375 C-5.125 9.125 -5.125 9.125 -5.625 5.5 C-4.97687458 1.12515344 -4.48236291 0.17929452 0 0 Z " fill="#1F7DA1" transform="translate(185.125,77.875)"/>
<path d="M0 0 C0.99 0 1.98 0 3 0 C3.12375 0.804375 3.2475 1.60875 3.375 2.4375 C3.684375 3.7059375 3.684375 3.7059375 4 5 C4.66 5.33 5.32 5.66 6 6 C6 7.32 6 8.64 6 10 C5.34 10 4.68 10 4 10 C4 13.96 4 17.92 4 22 C4.99 22.33 5.98 22.66 7 23 C6.67 23.99 6.34 24.98 6 26 C4.35 25.67 2.7 25.34 1 25 C-0.38289756 16.42832093 -1.50401732 8.63793734 0 0 Z " fill="#3389AA" transform="translate(127,72)"/>
<path d="M0 0 C0.99 0.33 1.98 0.66 3 1 C3 9.91 3 18.82 3 28 C1.68 28 0.36 28 -1 28 C-1.02886338 23.52084672 -1.04675187 19.04171709 -1.0625 14.5625 C-1.07087891 13.28310547 -1.07925781 12.00371094 -1.08789062 10.68554688 C-1.09111328 9.47060547 -1.09433594 8.25566406 -1.09765625 7.00390625 C-1.10289307 5.87799072 -1.10812988 4.7520752 -1.11352539 3.59204102 C-1 1 -1 1 0 0 Z " fill="#519AB6" transform="translate(146,31)"/>
<path d="M0 0 C0.99 0 1.98 0 3 0 C3 1.65 3 3.3 3 5 C3.99 5 4.98 5 6 5 C6 6.65 6 8.3 6 10 C5.34 10 4.68 10 4 10 C4 13.96 4 17.92 4 22 C4.99 22 5.98 22 7 22 C6.67 23.32 6.34 24.64 6 26 C4.35 25.67 2.7 25.34 1 25 C1 20.05 1 15.1 1 10 C0.34 10 -0.32 10 -1 10 C-0.67 6.7 -0.34 3.4 0 0 Z " fill="#2C85A7" transform="translate(158,72)"/>
<path d="M0 0 C0.99 0.33 1.98 0.66 3 1 C3 2.65 3 4.3 3 6 C3.99 6 4.98 6 6 6 C5.67 7.32 5.34 8.64 5 10 C4.34 10 3.68 10 3 10 C3 13.96 3 17.92 3 22 C3.99 22.33 4.98 22.66 6 23 C5.67 23.99 5.34 24.98 5 26 C1.125 25.125 1.125 25.125 0 24 C-0.21116846 21.73287193 -0.36890094 19.46066406 -0.5 17.1875 C-0.72770043 12.42219119 -0.72770043 12.42219119 -1.58984375 7.75390625 C-2.25688799 4.90149803 -1.02638673 2.65653037 0 0 Z " fill="#2C85A7" transform="translate(197,72)"/>
<path d="M0 0 C1.875 0.3125 1.875 0.3125 4 1 C6.29000466 4.43500699 6.29748064 5.88728019 6.3125 9.9375 C6.32925781 10.97777344 6.34601563 12.01804688 6.36328125 13.08984375 C5.95846133 16.33275597 5.28491988 17.69872032 3 20 C0.5 20.4375 0.5 20.4375 -2 20 C-3.8125 18.5 -3.8125 18.5 -5 17 C-2.69 16.34 -0.38 15.68 2 15 C2 12.03 2 9.06 2 6 C0.68 5.34 -0.64 4.68 -2 4 C-1.34 2.68 -0.68 1.36 0 0 Z " fill="#237FA3" transform="translate(166,117)"/>
<path d="M0 0 C0.33 0.99 0.66 1.98 1 3 C-0.98 3.33 -2.96 3.66 -5 4 C-5 4.33 -5 4.66 -5 5 C-3.35 5 -1.7 5 0 5 C0.22036864 8.85645121 -0.39644899 11.49223216 -2 15 C-4.375 14.6875 -4.375 14.6875 -7 14 C-9.31282587 10.53076119 -9.42478586 9.07794425 -9 5 C-7.875 3.125 -7.875 3.125 -6 2 C-2.8125 1.8125 -2.8125 1.8125 0 2 C0 1.34 0 0.68 0 0 Z " fill="#2E86A8" transform="translate(200,44)"/>
<path d="M0 0 C2.5625 0.25 2.5625 0.25 5 1 C6.40457737 3.80915474 6.24895157 5.88810534 6 9 C4.5 11.375 4.5 11.375 3 13 C-0.875 11.25 -0.875 11.25 -2 9 C-2.1875 5.5 -2.1875 5.5 -2 2 C-1.34 1.34 -0.68 0.68 0 0 Z " fill="#F0F6F8" transform="translate(201,121)"/>
<path d="M0 0 C4.875 0.875 4.875 0.875 6 2 C6.16796875 3.99609375 6.16796875 3.99609375 6.1875 6.4375 C6.20167969 7.24058594 6.21585938 8.04367188 6.23046875 8.87109375 C6 11 6 11 4 13 C1.9375 12.75 1.9375 12.75 0 12 C-1.12256131 9.75487738 -1.13413762 8.48543351 -1.125 6 C-1.12886719 4.948125 -1.12886719 4.948125 -1.1328125 3.875 C-1 2 -1 2 0 0 Z " fill="#F5F9FA" transform="translate(163,121)"/>
<path d="M0 0 C2.375 0.3125 2.375 0.3125 5 1 C7.03120707 4.04681061 7.24659875 4.60118324 7.1953125 8.01171875 C7.18564453 9.14770508 7.18564453 9.14770508 7.17578125 10.30664062 C7.15902344 11.09232422 7.14226562 11.87800781 7.125 12.6875 C7.11597656 13.48478516 7.10695313 14.28207031 7.09765625 15.10351562 C7.07411585 17.069139 7.03824547 19.03460775 7 21 C6.01 21 5.02 21 4 21 C3.67 15.39 3.34 9.78 3 4 C1.35 4.33 -0.3 4.66 -2 5 C-1.34 3.35 -0.68 1.7 0 0 Z " fill="#197A9F" transform="translate(252,38)"/>
<path d="M0 0 C0.99 0 1.98 0 3 0 C3 0.66 3 1.32 3 2 C4.65 1.34 6.3 0.68 8 0 C7.6875 1.9375 7.6875 1.9375 7 4 C6.01 4.33 5.02 4.66 4 5 C3.67 9.95 3.34 14.9 3 20 C2.01 19.67 1.02 19.34 0 19 C0 12.73 0 6.46 0 0 Z " fill="#1E7CA1" transform="translate(145,117)"/>
<path d="M0 0 C2.875 0.1875 2.875 0.1875 6 1 C7.375 3.5625 7.375 3.5625 8 6 C7.34 6 6.68 6 6 6 C6 6.99 6 7.98 6 9 C3.36 9 0.72 9 -2 9 C-2.66 7.68 -3.32 6.36 -4 5 C-2.68 3.35 -1.36 1.7 0 0 Z " fill="#207EA2" transform="translate(131,38)"/>
<path d="M0 0 C0.763125 0.20625 1.52625 0.4125 2.3125 0.625 C2.5 4 2.5 4 2.3125 7.625 C-0.6875 9.625 -0.6875 9.625 -2.75 9.375 C-4.6875 8.625 -4.6875 8.625 -6.6875 6.625 C-6.5 4.125 -6.5 4.125 -5.6875 1.625 C-2.6875 -0.375 -2.6875 -0.375 0 0 Z " fill="#2581A4" transform="translate(234.6875,49.375)"/>
<path d="M0 0 C1.98 0 3.96 0 6 0 C5.52433594 0.99580078 5.52433594 0.99580078 5.0390625 2.01171875 C3.78815849 5.60924343 3.54809948 9.0439801 3.375 12.8125 C3.33632812 13.50537109 3.29765625 14.19824219 3.2578125 14.91210938 C3.16426432 16.60767015 3.08107636 18.30379712 3 20 C2.01 20 1.02 20 0 20 C0 13.4 0 6.8 0 0 Z " fill="#2983A5" transform="translate(210,39)"/>
<path d="M0 0 C-0.875 7.875 -0.875 7.875 -2 9 C-4.4375 9.25 -4.4375 9.25 -7 9 C-9 6 -9 6 -8.75 3.375 C-8.5025 2.59125 -8.255 1.8075 -8 1 C-5.29120665 -0.35439668 -2.99066732 -0.06501451 0 0 Z " fill="#1F7DA1" transform="translate(148,89)"/>
<path d="M0 0 C1.99954746 -0.04254356 4.00041636 -0.04080783 6 0 C7 1 7 1 7.125 4.5 C7 8 7 8 6 9 C4.00041636 9.04080783 1.99954746 9.04254356 0 9 C0 6.03 0 3.06 0 0 Z " fill="#F7FAFB" transform="translate(111,36)"/>
<path d="M0 0 C0.99 0 1.98 0 3 0 C3 6.6 3 13.2 3 20 C2.01 20 1.02 20 0 20 C0 13.4 0 6.8 0 0 Z " fill="#2882A5" transform="translate(209,78)"/>
<path d="M0 0 C0.99 0.66 1.98 1.32 3 2 C2.67 3.32 2.34 4.64 2 6 C1.36191406 5.9278125 0.72382812 5.855625 0.06640625 5.78125 C-0.75988281 5.6884375 -1.58617188 5.595625 -2.4375 5.5 C-3.26121094 5.4071875 -4.08492188 5.314375 -4.93359375 5.21875 C-6.4639499 5.05543721 -6.4639499 5.05543721 -8 5 C-8.33 6.98 -8.66 8.96 -9 11 C-9.33 11 -9.66 11 -10 11 C-10.20145347 7.50813979 -10.34907805 4.80082611 -8.9375 1.5625 C-5.98820117 -0.81596679 -3.66596109 -0.39278155 0 0 Z " fill="#2983A5" transform="translate(117,71)"/>
<path d="M0 0 C2 3 2 3 2 7 C-0.95664519 8.4783226 -3.74229737 8.06032783 -7 8 C-7 7.67 -7 7.34 -7 7 C-5.02 7 -3.04 7 -1 7 C-1.33 5.68 -1.66 4.36 -2 3 C-3.98 3 -5.96 3 -8 3 C-8 2.01 -8 1.02 -8 0 C-5.06791253 -1.46604374 -3.11702298 -0.77925574 0 0 Z " fill="#2E86A8" transform="translate(238,39)"/>
<path d="M0 0 C1.8125 1.0625 1.8125 1.0625 3 3 C3.24713438 5.71847813 3.13479526 8.2591631 3 11 C0.10067643 8.60490662 -0.50168276 6.68754757 -1 3 C-3.31 3 -5.62 3 -8 3 C-7.67 2.01 -7.34 1.02 -7 0 C-4.26634878 -1.36682561 -2.89333621 -0.84683011 0 0 Z " fill="#2A84A6" transform="translate(148,78)"/>
<path d="M0 0 C1.8125 1.25 1.8125 1.25 3 3 C3 4.32 3 5.64 3 7 C2.46375 6.690625 1.9275 6.38125 1.375 6.0625 C-1.3984957 4.82172561 -4.00042837 4.4090325 -7 4 C-7 3.01 -7 2.02 -7 1 C-4.45132831 -0.27433584 -2.82594567 -0.27570202 0 0 Z " fill="#227FA2" transform="translate(200,38)"/>
<path d="M0 0 C0.66 0 1.32 0 2 0 C1 5 0 10 -1 15 C-1.99 14.67 -2.98 14.34 -4 14 C-3.53328373 8.58609132 -2.75702189 4.79482068 0 0 Z " fill="#378BAB" transform="translate(184,38)"/>
<path d="M0 0 C1.2065625 0.0309375 1.2065625 0.0309375 2.4375 0.0625 C2.5625 2.4375 2.5625 2.4375 2.4375 5.0625 C1.7775 5.7225 1.1175 6.3825 0.4375 7.0625 C-0.5525 7.0625 -1.5425 7.0625 -2.5625 7.0625 C-2.94383299 5.0710944 -3.27575582 3.06970923 -3.5625 1.0625 C-2.5625 0.0625 -2.5625 0.0625 0 0 Z " fill="#E6F0F4" transform="translate(197.5625,48.9375)"/>
<path d="M0 0 C1.67542976 0.28604898 3.34385343 0.61781233 5 1 C4.75 2.875 4.75 2.875 4 5 C1.9375 6.25 1.9375 6.25 0 7 C-0.66 6.34 -1.32 5.68 -2 5 C-1.46428571 1.46428571 -1.46428571 1.46428571 0 0 Z " fill="#E8F2F5" transform="translate(159,49)"/>
<path d="M0 0 C1.98 0 3.96 0 6 0 C5.67 1.65 5.34 3.3 5 5 C3.0625 5.5625 3.0625 5.5625 1 6 C0 5 0 5 -0.0625 2.4375 C-0.041875 1.633125 -0.02125 0.82875 0 0 Z " fill="#EEF5F8" transform="translate(142,89)"/>
<path d="M0 0 C1.65 0.33 3.3 0.66 5 1 C4.67 2.65 4.34 4.3 4 6 C2.35 5.67 0.7 5.34 -1 5 C-0.67 3.35 -0.34 1.7 0 0 Z " fill="#F0F6F9" transform="translate(232,49)"/>
<path d="M0 0 C0.625 1.875 0.625 1.875 1 4 C-1 6 -1 6 -3.4375 6.3125 C-6.39279457 5.95209822 -7.18887927 5.28773145 -9 3 C-7.88625 2.690625 -6.7725 2.38125 -5.625 2.0625 C-2.2054845 1.17673517 -2.2054845 1.17673517 0 0 Z " fill="#13769C" transform="translate(170,131)"/>
<path d="M0 0 C1.67542976 0.28604898 3.34385343 0.61781233 5 1 C4.67 2.32 4.34 3.64 4 5 C2.68 5.33 1.36 5.66 0 6 C-0.38218767 4.34385343 -0.71395102 2.67542976 -1 1 C-0.67 0.67 -0.34 0.34 0 0 Z " fill="#FAFCFD" transform="translate(182,128)"/>
<path d="M0 0 C2.0625 0.4375 2.0625 0.4375 4 1 C4.33 2.32 4.66 3.64 5 5 C2.69 5 0.38 5 -2 5 C-1.125 1.125 -1.125 1.125 0 0 Z " fill="#D5E6ED" transform="translate(132,42)"/>
<path d="M0 0 C2 4 2 4 2 6 C2.99 6.33 3.98 6.66 5 7 C4.67 7.99 4.34 8.98 4 10 C2.68 9.67 1.36 9.34 0 9 C0 6.03 0 3.06 0 0 Z " fill="#16789D" transform="translate(198,88)"/>
<path d="M0 0 C1.65 0.33 3.3 0.66 5 1 C5 1.99 5 2.98 5 4 C2.69 4 0.38 4 -2 4 C-1.34 2.68 -0.68 1.36 0 0 Z " fill="#F0F6F8" transform="translate(131,121)"/>
<path d="M0 0 C0.99 0.33 1.98 0.66 3 1 C3.33 2.98 3.66 4.96 4 7 C3.34 7 2.68 7 2 7 C1.67 7.66 1.34 8.32 1 9 C0.67 6.03 0.34 3.06 0 0 Z " fill="#2983A6" transform="translate(173,39)"/>
<path d="M0 0 C0.66 0 1.32 0 2 0 C1.125 5.75 1.125 5.75 0 8 C-0.66 8 -1.32 8 -2 8 C-1.125 1.125 -1.125 1.125 0 0 Z " fill="#2A84A6" transform="translate(184,38)"/>
<path d="M0 0 C0.99 0 1.98 0 3 0 C2.25 2.4375 2.25 2.4375 1 5 C-1.125 5.8125 -1.125 5.8125 -3 6 C-1.125 1.125 -1.125 1.125 0 0 Z " fill="#2380A3" transform="translate(227,78)"/>
</svg>
